PathFileType	4	(X/Y/Z)	/Users/niels/Desktop/University/Third Semester/Perception and Action/Exam/Gymnastics Motion Tracking/Code for Gym Tracking/Analyzed Data/Backflip/id1_1_baseline_Sports2D/id1_1_baseline_Sports2D_px_person00.trc
DataRate	CameraRate	NumFrames	NumMarkers	Units	OrigDataRate	OrigDataStartFrame	OrigNumFrames
60.02098635886674	60.02098635886674	12	22	m	60.02098635886674	107	287
Frame#	Time	Hip			RHip			RKnee			RAnkle			RBigToe			RSmallToe			RHeel			LHip			LKnee			LAnkle			LBigToe			LSmallToe			LHeel			Neck			Head			Nose			RShoulder			RElbow			RWrist			LShoulder			LElbow			LWrist		
		X1	Y1	Z1	X2	Y2	Z2	X3	Y3	Z3	X4	Y4	Z4	X5	Y5	Z5	X6	Y6	Z6	X7	Y7	Z7	X8	Y8	Z8	X9	Y9	Z9	X10	Y10	Z10	X11	Y11	Z11	X12	Y12	Z12	X13	Y13	Z13	X14	Y14	Z14	X15	Y15	Z15	X16	Y16	Z16	X17	Y17	Z17	X18	Y18	Z18	X19	Y19	Z19	X20	Y20	Z20	X21	Y21	Z21	X22	Y22	Z22
107	1.78270979020979	1.0623746362045596	-0.5762686795205801	0.0	1.0577645417644306	-0.5764628106050701	0.0	1.052549250396767	-0.676617336437395	0.0	1.0322338956696664	-0.7646172898796171	0.0	1.0610534288975375	-0.770958759791965	0.0	1.0550025484151584	-0.7749152172242431	0.0	1.028180048390822	-0.7736530183238584	0.0	1.0627933558306542	-0.576590021341445	0.0	1.0560232085510206	-0.6757195085899855	0.0	1.036273744863123	-0.7615330184544484	0.0	1.069274352066234	-0.7702564855503796	0.0	1.061888354849921	-0.7684497012625039	0.0	1.0230622336412216	-0.7701297246535647	0.0	1.0625657674176519	-0.4434821468528572	0.0	1.0707613701066097	-0.3928475803643344	0.0	1.089138863840961	-0.4198834703552016	0.0	1.0559319195924655	-0.45377508004646466	0.0	1.0800538178215457	-0.388109955837282	0.0	1.0830391115668763	-0.33022763941075506	0.0	1.0633741881104932	-0.45497528600933057	0.0	1.0818143043972819	-0.39332089656822705	0.0	1.083673666401294	-0.3415435125142781	0.0
108	1.799370629370629	1.0624197093921706	-0.575965829916431	0.0	1.0577699533791565	-0.5760687307355175	0.0	1.0525597732970804	-0.6759617643716638	0.0	1.0321620757399521	-0.7640333482544787	0.0	1.0612454701058653	-0.7705672732789607	0.0	1.0551025017481115	-0.7744093767442766	0.0	1.0281996780871405	-0.7731938182350959	0.0	1.0628115692543882	-0.5761898704934598	0.0	1.0561578205594278	-0.6750218380500586	0.0	1.0363812682606206	-0.7608200075346888	0.0	1.0693276216174297	-0.769422983464139	0.0	1.0619102639816733	-0.7676040627439439	0.0	1.0233121852921119	-0.7694951446342791	0.0	1.062679188632505	-0.44341879938958395	0.0	1.0709381576640193	-0.39241191333660697	0.0	1.088962587859326	-0.4196060938908103	0.0	1.056094535397505	-0.4536118823092979	0.0	1.0807965234203438	-0.3874532041978643	0.0	1.0842491026174053	-0.3296164095443999	0.0	1.0634750704798706	-0.4547724679370325	0.0	1.0826671425640544	-0.39474350453848667	0.0	1.0847526281263178	-0.3482472540892477	0.0
109	1.8160314685314682	1.062445796340815	-0.5755997426873546	0.0	1.057722144655161	-0.5755976061310396	0.0	1.052549401974886	-0.6752788293430397	0.0	1.0321106921789058	-0.7634675021619803	0.0	1.0615255577037712	-0.7701820611129359	0.0	1.0552212989568495	-0.7738972403868917	0.0	1.0282435592990515	-0.7727447191860578	0.0	1.0628811200550594	-0.5757210200996886	0.0	1.0563232712397492	-0.674312116251718	0.0	1.0365155588475599	-0.7601316228029628	0.0	1.0694021684603956	-0.7686015746740807	0.0	1.061973638554931	-0.7667566331536714	0.0	1.0236020663574814	-0.7688629151645742	0.0	1.0628010052214316	-0.44323817960468853	0.0	1.0711741634850822	-0.3918637731781775	0.0	1.088770815668863	-0.4191828591947652	0.0	1.056223983951427	-0.45333337395856566	0.0	1.0816732983845176	-0.3867393577874341	0.0	1.0856805374488643	-0.3289408828731571	0.0	1.063649787688481	-0.45448032170859487	0.0	1.0836516672110752	-0.39671479426127887	0.0	1.0859458302779699	-0.3572453190904975	0.0
110	1.8326923076923074	1.062441307283378	-0.5751691363957574	0.0	1.057610464093198	-0.575050522710016	0.0	1.052514060101658	-0.6745886930665962	0.0	1.0320902487488592	-0.7629570241270333	0.0	1.0619124760775898	-0.7698341892025261	0.0	1.0553628626031195	-0.7734042976590565	0.0	1.0283149127376765	-0.7723336126148153	0.0	1.0630004025572444	-0.5751913233834541	0.0	1.0565244221889436	-0.6736096453712043	0.0	1.0366711946248863	-0.7595089451714674	0.0	1.0695232031225923	-0.7678401807543249	0.0	1.0620996737112116	-0.7659531549469814	0.0	1.0239266582236772	-0.7682673227030217	0.0	1.062942042138819	-0.44291649411428513	0.0	1.0714774889131795	-0.39118201052158647	0.0	1.088585951580176	-0.4185922914029375	0.0	1.0563172770054257	-0.4529182538674594	0.0	1.0826839142563762	-0.38598065262251025	0.0	1.0873695316754513	-0.3282098925517673	0.0	1.0639237991718176	-0.4540793777484758	0.0	1.0847377397457076	-0.39924337806126375	0.0	1.087202070583427	-0.368651692603249	0.0
111	1.8493531468531466	1.0623981013718364	-0.5746761690329969	0.0	1.0574313833102418	-0.5744320836494033	0.0	1.0524508285050955	-0.6739124590445833	0.0	1.0321071424461912	-0.7625314740243216	0.0	1.062415267656775	-0.7695494392670521	0.0	1.0555272149851578	-0.7729553550874129	0.0	1.0284108742268994	-0.7719881811526563	0.0	1.0631577118806501	-0.5746108533723903	0.0	1.0567581384420277	-0.6729294312206764	0.0	1.0368373630275551	-0.7589858827583439	0.0	1.0697140130884377	-0.7671792396235444	0.0	1.0622985733946166	-0.7652345103529536	0.0	1.0242724340297187	-0.767738601230052	0.0	1.063107883477405	-0.4424451108411369	0.0	1.0718612466310298	-0.39035133058397997	0.0	1.088434422139233	-0.4178314847237733	0.0	1.0563745967952056	-0.4523557304865831	0.0	1.0838261822125355	-0.38520221906975566	0.0	1.0893541803777083	-0.32744550519249527	0.0	1.064309498518451	-0.4535580246537528	0.0	1.0858669187777379	-0.4022804341847666	0.0	1.0884399756784218	-0.3823541051257392	0.0
112	1.8660139860139857	1.0623100786061705	-0.5741256503954327	0.0	1.0571860142158063	-0.5737517651581208	0.0	1.0523594261035034	-0.6732677333099403	0.0	1.032166124652949	-0.7622107649469414	0.0	1.063038705032926	-0.769351932287932	0.0	1.055716217076797	-0.7725797263494725	0.0	1.0285259147777455	-0.7717313602323744	0.0	1.0633325505748978	-0.5739930593372321	0.0	1.0570145029138742	-0.6722818071100874	0.0	1.037003760140434	-0.7585852373701352	0.0	1.0700013505588826	-0.7666474450575663	0.0	1.062578589745405	-0.7646328155070925	0.0	1.024626254169502	-0.7672971149386539	0.0	1.06329894604965	-0.44183164923817914	0.0	1.0723403045540187	-0.3893680270684325	0.0	1.0883469256650333	-0.4169130183647796	0.0	1.0564016101600247	-0.4516479304314614	0.0	1.0850970373037931	-0.38444225742391946	0.0	1.0916718775693097	-0.3266857469548814	0.0	1.0648029542920643	-0.4529187913288023	0.0	1.0869471235196055	-0.4057728846930677	0.0	1.0895480975067673	-0.39804358162359704	0.0
113	1.8826748251748249	1.0621706219535418	-0.5735224833078616	0.0	1.056880685585594	-0.5730255824604498	0.0	1.0522453739168676	-0.6726630851349014	0.0	1.0322727479278004	-0.7620047923843207	0.0	1.0637901286739513	-0.7692615931958883	0.0	1.0559405514104196	-0.7723055078994696	0.0	1.0286563711450496	-0.7715746062715372	0.0	1.0634960725393934	-0.5733560369559224	0.0	1.057279186056263	-0.6716718868959101	0.0	1.037165818920834	-0.7583171710116404	0.0	1.0704216507154742	-0.7662568784681933	0.0	1.0629568851856945	-0.7641660531360681	0.0	1.0249832212635575	-0.7669512653728475	0.0	1.0635147802587064	-0.44109164654401145	0.0	1.0729218254019381	-0.38824703006370237	0.0	1.0883599169086664	-0.41585948579604387	0.0	1.0564135759330042	-0.45080689077244324	0.0	1.0864929371813326	-0.38374717890350873	0.0	1.0943563817075512	-0.3259891446998544	0.0	1.0653840358552398	-0.4521799676239583	0.0	1.087849591472372	-0.40986768731896117	0.0	1.0903879602081874	-0.4155112928866457	0.0
114	1.899335664335664	1.0619728908252775	-0.5728691575464924	0.0	1.0565296789426524	-0.5722768177970664	0.0	1.052122122314712	-0.6720979083329475	0.0	1.032434677870745	-0.7619123612417623	0.0	1.0646776069743082	-0.7692819977455739	0.0	1.0562201059522356	-0.7721452545102667	0.0	1.0288041593589277	-0.7715133385824108	0.0	1.0636147937221474	-0.5727226266121677	0.0	1.0575381850479153	-0.6711004561690327	0.0	1.0373270817679738	-0.7581798712521739	0.0	1.0710146170008028	-0.7659990970553278	0.0	1.0634600970010686	-0.7638318411619068	0.0	1.0253460118040736	-0.7666996686657932	0.0	1.0637575429085095	-0.4402367842646864	0.0	1.0735970625526117	-0.38702792875714487	0.0	1.0885141514671237	-0.4147032672936021	0.0	1.0564363222949662	-0.4498498265565611	0.0	1.0880108091678449	-0.3831672037752165	0.0	1.0974332740175055	-0.32543443072822764	0.0	1.066019911841761	-0.4513692297234687	0.0	1.088416258177141	-0.41502711627985867	0.0	1.0908042463559915	-0.4347791098900109	0.0
115	1.9159965034965032	1.0617120156818305	-0.5721660231490011	0.0	1.056153187777379	-0.5715334459572348	0.0	1.0520072810293521	-0.6715673104213102	0.0	1.032660397998954	-0.761923081894251	0.0	1.0657011846132498	-0.769393010417332	0.0	1.0565766686582307	-0.7720893002703668	0.0	1.0289763660047975	-0.7715310248557673	0.0	1.0636587743299606	-0.5721169578510629	0.0	1.057783119501885	-0.670566940335939	0.0	1.0374952118374983	-0.7581621901761203	0.0	1.0718015822721523	-0.7658488071426325	0.0	1.0641093223247506	-0.7636099120504892	0.0	1.0257174026221438	-0.7665362493148598	0.0	1.0640305533016445	-0.43926907747716964	0.0	1.0743400348606444	-0.3857714981570616	0.0	1.0888463272070534	-0.41348649517598046	0.0	1.0565009992939276	-0.44879591198985685	0.0	1.0896509844789912	-0.3827557669208118	0.0	1.1009136924691376	-0.32511082681683334	0.0	1.066671021589211	-0.45051237497574326	0.0	1.0884802212042604	-0.4218133355604049	0.0	1.0906437565749107	-0.4556274824369727	0.0
116	1.9326573426573423	1.0613842886524518	-0.5714142920380424	0.0	1.055769304411	-0.5708211284020069	0.0	1.0519136085098746	-0.6710663614895326	0.0	1.0329545087959144	-0.762020601669453	0.0	1.0668441001809867	-0.7695545256229804	0.0	1.0570236294712143	-0.7721100852028494	0.0	1.029179915996776	-0.7716075183246437	0.0	1.0636046332505276	-0.5715572851446196	0.0	1.0580101186717117	-0.6700717610835972	0.0	1.037674017279605	-0.7582465327846157	0.0	1.0727663252048547	-0.765770593679067	0.0	1.0649012512039537	-0.7634706754050226	0.0	1.0260939870394903	-0.7664527738239854	0.0	1.0643339088601187	-0.43818669743150757	0.0	1.075115223055742	-0.38454625609295834	0.0	1.0893770737069832	-0.41225637092804635	0.0	1.0566372217796804	-0.4476645889253067	0.0	1.091419542939431	-0.38256494643490385	0.0	1.104791493589553	-0.3251054364310313	0.0	1.0672938135789023	-0.4496280194610486	0.0	1.0878891943966391	-0.4305817729769887	0.0	1.0897770937001576	-0.477101755397953	0.0
117	1.9493181818181815	1.0609833362101544	-0.5706194784674703	0.0	1.0553867190167483	-0.5701552574360003	0.0	1.0518433394823277	-0.6705906473061237	0.0	1.0333140361658195	-0.7621812389205276	0.0	1.0680659180383216	-0.7697173519515926	0.0	1.0575544625441662	-0.7721705500792528	0.0	1.0294157292020638	-0.7717199266119794	0.0	1.0634315745738576	-0.5710505603365749	0.0	1.0582141698555922	-0.6696140349429268	0.0	1.0378599537742974	-0.7584099723063024	0.0	1.0738530347944906	-0.7657247723032007	0.0	1.0658000988502205	-0.7633809669135396	0.0	1.0264674178892705	-0.7664358722883353	0.0	1.0646610503026515	-0.4369984969920331	0.0	1.0758913871318267	-0.3834121949718467	0.0	1.09010313542892	-0.41105836691596953	0.0	1.056867219763934	-0.4464755234455303	0.0	1.0933270967036701	-0.38263391121517565	0.0	1.1090466351962847	-0.3254937454310398	0.0	1.0678414149983884	-0.4487323152061314	0.0	1.0865255401683074	-0.4413250615736877	0.0	1.0881205376844265	-0.49772789444836596	0.0
118	1.9659790209790207	1.0604994666879815	-0.5697928807032389	0.0	1.055003102790461	-0.5695391784138963	0.0	1.051789875487534	-0.6701341911707583	0.0	1.0337288026258826	-0.762370530464026	0.0	1.0693008636009207	-0.7698351771767273	0.0	1.0581349221508387	-0.7722314109560063	0.0	1.0296782904644834	-0.7718366483274337	0.0	1.0631217541772304	-0.5705939942350464	0.0	1.058389041022931	-0.6691865941633615	0.0	1.0380461423433498	-0.7586231652075196	0.0	1.0749758371122282	-0.7656751015252201	0.0	1.0667424837155726	-0.763307672090968	0.0	1.0268313092122547	-0.7664630008485208	0.0	1.0649984915918231	-0.43573356847076905	0.0	1.0766542731532025	-0.38240962328663763	0.0	1.0909987473471268	-0.40993263437008454	0.0	1.0572009072995348	-0.4452500842500677	0.0	1.095384394460188	-0.38298430686914287	0.0	1.1136502647266844	-0.32633569275570196	0.0	1.0682698276216953	-0.44784374275746325	0.0	1.0843286708047064	-0.45358448430352677	0.0	1.0856684522673392	-0.5161658900722949	0.0
